#!OML:ASF H:\LiuWeirdWalks\Patient Classification 1\Patient 1\Session 1\male.ASF
:FULLY-SPECIFIED
:DEGREES
367
root 1.09704 17.896 -1.84299 1.42029 7.43721 -7.19985
lowerback 3.39214 6.91296 8.57524
upperback -1.12601 9.65759 2.11973
thorax -2.03009 4.70436 -2.92674
lowerneck -16.0729 -1.62273 2.46663
upperneck 23.9608 -1.83812 -3.97923
head 10.2358 -1.0636 -2.0666
rclavicle -5.32743e-014 -2.70347e-014
rhumerus -21.3766 6.41114 -67.2948
rradius 52.8204
rwrist -2.15044
rhand -11.011 7.59636
rfingers 7.12502
rthumb 15.0099 -21.8396
lclavicle -5.32743e-014 -2.70347e-014
lhumerus -31.2592 13.2847 48.9653
lradius 55.3647
lwrist 9.17531
lhand -14.9487 -3.04617
lfingers 7.12502
lthumb 11.2142 26.6341
rfemur 15.6714 -2.70208 31.2931
rtibia 9.29149
rfoot -7.37658 -12.8977
rtoes -14.6288
lfemur -34.1084 -2.34333 -11.5566
ltibia 23.016
lfoot -9.62945 11.3848
ltoes -18.653
368
root 1.12275 17.8745 -1.68806 1.43701 7.51007 -7.29091
lowerback 3.32647 7.25478 8.70069
upperback -1.19568 10.1131 2.04881
thorax -1.9837 4.92924 -3.06124
lowerneck -16.0277 -1.83789 2.2562
upperneck 23.9135 -2.1179 -3.83853
head 10.204 -1.19384 -2.01578
rclavicle -7.33764e-014 -9.93923e-015
rhumerus -20.846 6.62199 -67.9253
rradius 52.934
rwrist -2.05788
rhand -10.9964 7.66003
rfingers 7.12502
rthumb 15.024 -21.7749
lclavicle -7.33764e-014 -9.93923e-015
lhumerus -32.3751 13.9378 47.7105
lradius 55.47
lwrist 9.18582
lhand -14.9202 -2.82311
lfingers 7.12502
lthumb 11.2417 26.8557
rfemur 16.3745 -2.79668 31.3184
rtibia 8.86893
rfoot -7.02532 -12.704
rtoes -15.0965
lfemur -34.313 -2.46941 -11.5955
ltibia 22.8189
lfoot -9.8167 10.818
ltoes -18.9519
369
root 1.149 17.8506 -1.53171 1.43612 7.58976 -7.3947
lowerback 3.27279 7.5861 8.83006
upperback -1.2579 10.5558 1.98703
thorax -1.93598 5.14797 -3.18703
lowerneck -16.0052 -2.05424 2.05378
upperneck 23.8663 -2.39647 -3.71949
head 10.1774 -1.32566 -1.97422
rclavicle -1.0671e-013 -3.45885e-014
rhumerus -20.329 6.83719 -68.5679
rradius 53.0572
rwrist -1.99587
rhand -10.9357 7.71541
rfingers 7.12502
rthumb 15.0824 -21.7151
lclavicle -1.0671e-013 -3.45885e-014
lhumerus -33.5106 14.6054 46.4526
lradius 55.5394
lwrist 9.15069
lhand -14.8826 -2.63531
lfingers 7.12502
lthumb 11.278 27.0415
rfemur 17.0121 -2.89983 31.3496
rtibia 8.61272
rfoot -6.72971 -12.5054
rtoes -15.5564
lfemur -34.4479 -2.63736 -11.5876
ltibia 22.7859
lfoot -9.9233 10.3207
ltoes -19.1767
370
root 1.17548 17.8243 -1.37401 1.41779 7.67902 -7.50985
lowerback 3.23551 7.90421 8.95445
upperback -1.31437 10.9825 1.93941
thorax -1.89436 5.35879 -3.29574
lowerneck -15.9986 -2.27594 1.81929
upperneck 23.8615 -2.67705 -3.58532
head 10.1709 -1.45929 -1.92348
rclavicle -3.17931e-014 -3.29983e-014
rhumerus -19.8291 7.08199 -69.2229
rradius 53.186
rwrist -1.96534
rhand -10.8689 7.75791
rfingers 7.12502
rthumb 15.1468 -21.6678
lclavicle -3.17931e-014 -3.29983e-014
lhumerus -34.6746 15.2993 45.189
lradius 55.5738
lwrist 9.0681
lhand -14.8411 -2.45767
lfingers 7.12502
lthumb 11.318 27.2169
rfemur 17.5851 -3.01399 31.3893
rtibia 8.52153
rfoot -6.4946 -12.3087
rtoes -16.0019
lfemur -34.5174 -2.86836 -11.5242
ltibia 22.9035
lfoot -9.9683 9.87343
ltoes -19.3658
371
root 1.20221 17.7949 -1.21449 1.36988 7.7738 -7.65515
lowerback 3.21727 8.21496 9.09432
upperback -1.36193 11.402 1.91057
thorax -1.85368 5.56606 -3.39361
lowerneck -16.0065 -2.50383 1.56782
upperneck 23.8787 -2.96406 -3.44127
head 10.1767 -1.59612 -1.86816
rclavicle -9.85848e-015 -1.78906e-014
rhumerus -19.3566 7.35369 -69.8848
rradius 53.3207
rwrist -1.94691
rhand -10.853 7.80616
rfingers 7.12502
rthumb 15.1621 -21.6184
lclavicle -9.85848e-015 -1.78906e-014
lhumerus -35.8533 16.0039 43.9326
lradius 55.5732
lwrist 8.92522
lhand -14.7623 -2.33857
lfingers 7.12502
lthumb 11.394 27.3319
rfemur 18.1185 -3.13764 31.4585
rtibia 8.57063
rfoot -6.30369 -12.118
rtoes -16.4412
lfemur -34.5178 -3.17116 -11.3778
ltibia 23.1579
lfoot -10.0211 9.4224
ltoes -19.5166
372
root 1.22962 17.7625 -1.05269 1.29255 7.87773 -7.82241
lowerback 3.21445 8.51363 9.24447
upperback -1.39542 11.8071 1.89946
thorax -1.80826 5.76665 -3.47827
lowerneck -16.0587 -2.72859 1.31297
upperneck 23.9398 -3.24696 -3.29191
head 10.2085 -1.73051 -1.81201
rclavicle -4.89197e-014 -1.64991e-014
rhumerus -18.9032 7.66555 -70.5476
rradius 53.466
rwrist -1.90843
rhand -10.866 7.84972
rfingers 7.12502
rthumb 15.1495 -21.5758
lclavicle -4.89197e-014 -1.64991e-014
lhumerus -37.0511 16.7237 42.6836
lradius 55.5488
lwrist 8.72523
lhand -14.6625 -2.26221
lfingers 7.12502
lthumb 11.4902 27.4029
rfemur 18.6242 -3.27438 31.5472
rtibia 8.74053
rfoot -6.15155 -11.9388
rtoes -16.8743
lfemur -34.4524 -3.55566 -11.1576
ltibia 23.5242
lfoot -10.1138 8.9177
ltoes -19.7118
373
root 1.25812 17.727 -0.88763 1.18606 7.95772 -8.0128
lowerback 3.21825 8.81281 9.40803
upperback -1.42005 12.2139 1.90493
thorax -1.7561 5.96854 -3.55137
lowerneck -16.0939 -2.94382 1.08382
upperneck 23.9821 -3.51806 -3.16373
head 10.2308 -1.85968 -1.76555
rclavicle -1.98878e-014 -2.88238e-014
rhumerus -18.4824 8.01819 -71.2087
rradius 53.6098
rwrist -1.81392
rhand -10.9046 7.89882
rfingers 7.12502
rthumb 15.1124 -21.5295
lclavicle -1.98878e-014 -2.88238e-014
lhumerus -38.2854 17.4198 41.4438
lradius 55.532
lwrist 8.53979
lhand -14.5686 -2.17333
lfingers 7.12502
lthumb 11.5808 27.4867
rfemur 19.1382 -3.39229 31.6567
rtibia 8.97884
rfoot -6.00294 -11.7731
rtoes -17.3172
lfemur -34.3171 -3.99935 -10.8635
ltibia 23.9818
lfoot -10.2358 8.33874
ltoes -20.0217
